<?xml version="1.0" standalone="no"?>
<!DOCTYPE svg PUBLIC "-//W3C//DTD SVG 20010904//EN"
 "http://www.w3.org/TR/2001/REC-SVG-20010904/DTD/svg10.dtd">
<svg version="1.0" xmlns="http://www.w3.org/2000/svg"
 width="369.000000pt" height="231.000000pt" viewBox="0 0 369.000000 231.000000"
 preserveAspectRatio="xMidYMid meet">
<metadata>
Created by potrace 1.16, written by Peter Selinger 2001-2019
</metadata>
<g transform="translate(0.000000,231.000000) scale(0.100000,-0.100000)"
fill="#000000" stroke="none">
<path d="M1780 2213 c-42 -6 -143 -44 -180 -68 -56 -35 -173 -182 -185 -232
-8 -32 -147 -155 -180 -159 -87 -12 -156 -41 -213 -89 -49 -41 -84 -123 -86
-199 -1 -63 -1 -63 -25 -55 -37 14 -144 3 -189 -20 -45 -23 -112 -95 -137
-147 -9 -20 -17 -58 -18 -85 l-2 -50 -70 -29 c-158 -66 -188 -193 -72 -303 21
-19 28 -31 20 -34 -9 -3 -10 -10 -3 -24 13 -23 22 -24 66 -3 40 19 45 48 12
65 -76 38 -123 122 -100 174 12 26 76 66 135 85 34 11 40 10 67 -13 68 -57
149 -59 279 -5 94 39 158 99 167 156 6 39 7 40 58 48 45 8 51 12 51 34 0 27
-24 33 -77 19 -24 -6 -28 -5 -28 12 0 33 27 87 51 99 32 17 126 8 180 -18 25
-12 65 -39 89 -59 36 -31 52 -38 89 -39 52 -1 91 13 91 32 0 19 -16 26 -64 26
-33 0 -52 7 -85 34 -111 87 -235 115 -321 72 -25 -13 -49 -32 -55 -43 -21 -42
-26 -47 -40 -35 -8 6 -14 19 -14 28 -4 106 6 155 41 205 43 61 158 107 265
107 41 0 54 4 62 18 7 13 7 22 -1 30 -13 13 0 28 57 67 28 18 43 38 54 73 22
63 103 167 159 203 44 28 106 51 170 64 l33 7 -26 -37 c-13 -21 -29 -54 -35
-74 -15 -56 -11 -161 8 -201 30 -63 122 -89 183 -53 31 19 69 85 69 121 0 31
16 36 110 35 134 -2 259 -20 353 -49 46 -15 47 -16 47 -58 0 -54 32 -89 94
-105 53 -13 131 6 163 41 52 56 92 175 93 271 l0 38 38 -7 c113 -20 204 -138
233 -305 9 -52 15 -108 12 -122 -4 -23 6 -38 65 -99 115 -119 157 -180 204
-298 54 -136 69 -345 33 -470 -10 -36 -21 -67 -25 -70 -3 -3 -17 -26 -29 -52
-43 -91 -188 -197 -291 -212 -77 -12 -111 -26 -108 -44 2 -11 14 -17 30 -18
34 -1 53 -16 66 -52 6 -15 14 -36 18 -47 4 -11 8 -22 9 -25 1 -3 5 -24 10 -47
10 -54 25 -76 48 -67 19 7 21 31 6 89 -5 22 -12 51 -15 64 -3 13 -11 36 -19
52 -19 36 -19 49 0 49 8 0 23 4 33 8 105 51 132 67 163 95 79 71 147 196 170
309 15 75 12 231 -7 330 -28 152 -124 326 -244 441 -56 55 -60 61 -61 105 -2
120 -22 192 -78 280 -79 121 -147 162 -270 162 -89 0 -170 -40 -259 -129 -37
-36 -71 -64 -77 -62 -5 2 -23 5 -40 8 -16 3 -37 9 -46 14 -29 15 -151 31 -293
37 -139 7 -139 7 -143 32 -11 80 -53 142 -106 159 -39 13 -103 19 -137 14z
m-867 -867 c18 -7 47 -28 65 -45 27 -28 32 -40 32 -81 0 -37 -6 -55 -24 -77
-44 -52 -172 -103 -259 -103 -72 0 -126 90 -96 162 20 48 83 123 120 141 41
20 118 22 162 3z"/>
<path d="M1603 1468 c-13 -6 -23 -15 -23 -19 0 -12 40 -48 85 -77 22 -14 62
-45 89 -69 26 -23 53 -43 60 -43 18 1 46 26 46 42 0 28 -62 98 -123 138 -63
41 -94 47 -134 28z"/>
<path d="M1944 1298 c-27 -42 7 -137 49 -139 42 -3 92 3 103 12 8 6 29 -1 63
-22 44 -28 57 -31 105 -27 62 5 96 32 96 75 0 29 -26 31 -56 2 -38 -36 -92
-26 -157 27 -33 28 -41 29 -59 10 -19 -19 -54 -29 -77 -21 -15 4 -21 17 -23
48 -3 43 -27 62 -44 35z"/>
<path d="M2597 1194 c-1 -1 -26 -4 -56 -7 -41 -4 -59 -11 -77 -31 -21 -22 -23
-28 -12 -46 17 -27 25 -28 198 -34 80 -3 162 -8 183 -12 26 -5 37 -3 37 5 0 7
7 19 15 27 51 52 -29 86 -228 97 -32 1 -59 2 -60 1z"/>
<path d="M1697 1124 c-24 -7 -14 -43 20 -69 15 -11 46 -36 69 -57 24 -20 57
-39 74 -43 54 -12 86 38 33 51 -16 4 -45 20 -66 37 -31 24 -35 32 -26 44 8 9
9 17 2 24 -12 12 -80 20 -106 13z"/>
<path d="M1353 1092 c-39 -21 -48 -48 -21 -63 11 -6 17 -17 14 -24 -3 -8 0
-17 6 -21 12 -7 149 -4 189 5 12 2 7 60 -7 72 -8 6 -14 17 -14 24 0 7 -7 16
-16 19 -30 12 -119 4 -151 -12z"/>
<path d="M1244 1005 c-4 -9 1 -24 10 -34 22 -24 6 -34 -31 -20 -26 10 -30 7
-58 -25 -33 -39 -46 -44 -65 -21 -15 18 -50 20 -50 3 1 -74 69 -98 132 -47 25
19 48 29 72 29 48 0 70 24 62 68 -6 40 -12 47 -44 57 -15 4 -24 2 -28 -10z"/>
<path d="M877 877 c-46 -25 -120 -103 -114 -120 2 -6 14 -14 28 -17 17 -4 24
-13 24 -30 0 -15 7 -26 17 -28 23 -4 177 88 184 111 3 10 -1 29 -10 42 -9 13
-16 31 -16 39 0 32 -58 34 -113 3z"/>
<path d="M1395 816 c-35 -15 -85 -70 -85 -92 0 -17 -16 -19 -26 -3 -14 23 -95
51 -122 43 -40 -11 -41 -11 -51 -13 -18 -2 -81 -96 -102 -150 -19 -50 -26 -82
-45 -186 -6 -37 16 -71 40 -62 11 5 16 19 16 49 0 46 39 177 71 240 42 82 116
89 169 16 32 -44 40 -73 43 -163 2 -54 4 -60 25 -63 17 -3 25 2 29 17 6 24 23
28 23 6 0 -9 12 -20 26 -25 46 -18 58 9 24 53 -90 115 -94 242 -8 278 48 20
107 -17 161 -98 22 -34 44 -63 47 -63 3 0 13 7 23 14 17 13 17 16 3 45 -21 39
-68 93 -114 130 -45 35 -105 46 -147 27z"/>
<path d="M1835 728 c-42 -15 -113 -76 -132 -112 -19 -37 -29 -172 -14 -190 16
-19 24 -115 13 -179 -7 -45 -6 -59 5 -69 19 -16 40 7 48 52 3 19 8 36 10 38 2
2 23 -9 47 -25 38 -26 70 -41 156 -74 30 -12 133 -11 152 1 12 7 13 13 4 27
-8 13 -24 18 -60 18 -58 1 -121 18 -184 50 -92 47 -139 127 -140 236 0 57 4
71 29 106 35 49 91 77 149 74 51 -1 92 -18 174 -67 68 -42 147 -69 161 -55 16
16 -3 49 -33 56 -16 3 -65 28 -109 55 -44 27 -98 54 -118 59 -48 14 -119 13
-158 -1z"/>
<path d="M514 665 c-17 -8 -37 -21 -44 -30 -12 -15 -12 -19 3 -30 22 -16 22
-147 0 -181 -17 -26 -10 -44 16 -44 40 0 51 22 54 110 2 55 10 98 21 123 15
30 16 40 6 52 -15 18 -16 18 -56 0z"/>
<path d="M701 269 c-22 -36 -27 -74 -11 -84 5 -3 23 9 40 26 16 18 33 29 37
25 4 -4 2 -10 -4 -14 -11 -7 -18 -48 -15 -84 1 -11 10 -18 21 -18 20 0 41 44
41 86 0 13 6 24 13 24 7 0 22 6 33 14 24 19 11 34 -36 40 -19 3 -49 8 -67 11
-29 7 -34 4 -52 -26z"/>
</g>
</svg>
